<svg xmlns="http://www.w3.org/2000/svg" version="1.1" baseProfile="full" xml:space="preserve" width="222.0px" height="77.0px" viewBox="0.0 0.0 222.0 77.0" overflow="visible">

<rect style="opacity:1.0;fill:#FFFFFF;stroke:none" width="222.0" height="77.0" x="0.0" y="0.0"> </rect>
<path class="bond-0 atom-0 atom-1" d="M 50.1,68.5 L 66.5,59.0" style="fill:none;fill-rule:evenodd;stroke:#000000;stroke-width:1.0px;stroke-linecap:butt;stroke-linejoin:miter;stroke-opacity:1" />
<path class="bond-1 atom-1 atom-2" d="M 66.5,59.0 L 66.5,40.0" style="fill:none;fill-rule:evenodd;stroke:#000000;stroke-width:1.0px;stroke-linecap:butt;stroke-linejoin:miter;stroke-opacity:1" />
<path class="bond-2 atom-2 atom-3" d="M 66.5,40.0 L 50.1,30.5" style="fill:none;fill-rule:evenodd;stroke:#000000;stroke-width:1.0px;stroke-linecap:butt;stroke-linejoin:miter;stroke-opacity:1" />
<path class="bond-3 atom-3 atom-4" d="M 50.1,30.5 L 38.5,37.2" style="fill:none;fill-rule:evenodd;stroke:#000000;stroke-width:1.0px;stroke-linecap:butt;stroke-linejoin:miter;stroke-opacity:1" />
<path class="bond-4 atom-2 atom-5" d="M 66.5,40.0 L 83.0,30.5" style="fill:none;fill-rule:evenodd;stroke:#000000;stroke-width:1.0px;stroke-linecap:butt;stroke-linejoin:miter;stroke-opacity:1" />
<path class="bond-5 atom-5 atom-6" d="M 83.0,30.5 L 99.4,40.0" style="fill:none;fill-rule:evenodd;stroke:#000000;stroke-width:1.0px;stroke-linecap:butt;stroke-linejoin:miter;stroke-opacity:1" />
<path class="bond-6 atom-6 atom-7" d="M 99.4,40.0 L 115.8,30.5" style="fill:none;fill-rule:evenodd;stroke:#000000;stroke-width:1.0px;stroke-linecap:butt;stroke-linejoin:miter;stroke-opacity:1" />
<path class="bond-7 atom-7 atom-8" d="M 115.8,30.5 L 132.3,40.0" style="fill:none;fill-rule:evenodd;stroke:#000000;stroke-width:1.0px;stroke-linecap:butt;stroke-linejoin:miter;stroke-opacity:1" />
<path class="bond-8 atom-8 atom-9" d="M 132.3,40.0 L 148.7,30.5" style="fill:none;fill-rule:evenodd;stroke:#000000;stroke-width:1.0px;stroke-linecap:butt;stroke-linejoin:miter;stroke-opacity:1" />
<path class="bond-9 atom-9 atom-10" d="M 148.7,30.5 L 165.1,40.0" style="fill:none;fill-rule:evenodd;stroke:#000000;stroke-width:1.0px;stroke-linecap:butt;stroke-linejoin:miter;stroke-opacity:1" />
<path class="bond-10 atom-10 atom-11" d="M 165.1,40.0 L 165.1,59.0" style="fill:none;fill-rule:evenodd;stroke:#000000;stroke-width:1.0px;stroke-linecap:butt;stroke-linejoin:miter;stroke-opacity:1" />
<path class="bond-11 atom-11 atom-12" d="M 165.1,59.0 L 148.7,68.5" style="fill:none;fill-rule:evenodd;stroke:#000000;stroke-width:1.0px;stroke-linecap:butt;stroke-linejoin:miter;stroke-opacity:1" />
<path class="bond-12 atom-10 atom-13" d="M 165.1,40.0 L 181.5,30.5" style="fill:none;fill-rule:evenodd;stroke:#000000;stroke-width:1.0px;stroke-linecap:butt;stroke-linejoin:miter;stroke-opacity:1" />
<path class="bond-13 atom-13 atom-14" d="M 181.5,30.5 L 198.0,40.0" style="fill:none;fill-rule:evenodd;stroke:#000000;stroke-width:1.0px;stroke-linecap:butt;stroke-linejoin:miter;stroke-opacity:1" />
<path class="bond-14 atom-13 atom-15" d="M 181.5,30.5 L 181.5,16.8" style="fill:none;fill-rule:evenodd;stroke:#000000;stroke-width:1.0px;stroke-linecap:butt;stroke-linejoin:miter;stroke-opacity:1" />
<path d="M 65.7,59.4 L 66.5,59.0 L 66.5,58.0" style="fill:none;stroke:#000000;stroke-width:1.0px;stroke-linecap:butt;stroke-linejoin:miter;stroke-opacity:1;" />
<path d="M 50.9,31.0 L 50.1,30.5 L 49.5,30.8" style="fill:none;stroke:#000000;stroke-width:1.0px;stroke-linecap:butt;stroke-linejoin:miter;stroke-opacity:1;" />
<path d="M 82.1,31.0 L 83.0,30.5 L 83.8,31.0" style="fill:none;stroke:#000000;stroke-width:1.0px;stroke-linecap:butt;stroke-linejoin:miter;stroke-opacity:1;" />
<path d="M 98.6,39.5 L 99.4,40.0 L 100.2,39.5" style="fill:none;stroke:#000000;stroke-width:1.0px;stroke-linecap:butt;stroke-linejoin:miter;stroke-opacity:1;" />
<path d="M 115.0,31.0 L 115.8,30.5 L 116.6,31.0" style="fill:none;stroke:#000000;stroke-width:1.0px;stroke-linecap:butt;stroke-linejoin:miter;stroke-opacity:1;" />
<path d="M 131.4,39.5 L 132.3,40.0 L 133.1,39.5" style="fill:none;stroke:#000000;stroke-width:1.0px;stroke-linecap:butt;stroke-linejoin:miter;stroke-opacity:1;" />
<path d="M 147.9,31.0 L 148.7,30.5 L 149.5,31.0" style="fill:none;stroke:#000000;stroke-width:1.0px;stroke-linecap:butt;stroke-linejoin:miter;stroke-opacity:1;" />
<path d="M 165.1,58.0 L 165.1,59.0 L 164.3,59.4" style="fill:none;stroke:#000000;stroke-width:1.0px;stroke-linecap:butt;stroke-linejoin:miter;stroke-opacity:1;" />
<path class="atom-4" d="M 23.4 36.5 L 24.4 36.5 L 24.4 39.5 L 28.0 39.5 L 28.0 36.5 L 29.0 36.5 L 29.0 43.6 L 28.0 43.6 L 28.0 40.3 L 24.4 40.3 L 24.4 43.6 L 23.4 43.6 L 23.4 36.5 " fill="#000000" />
<path class="atom-4" d="M 30.4 40.0 Q 30.4 38.3, 31.2 37.4 Q 32.1 36.4, 33.7 36.4 Q 35.2 36.4, 36.1 37.4 Q 36.9 38.3, 36.9 40.0 Q 36.9 41.7, 36.1 42.7 Q 35.2 43.7, 33.7 43.7 Q 32.1 43.7, 31.2 42.7 Q 30.4 41.7, 30.4 40.0 M 33.7 42.9 Q 34.7 42.9, 35.3 42.2 Q 35.9 41.4, 35.9 40.0 Q 35.9 38.6, 35.3 37.9 Q 34.7 37.2, 33.7 37.2 Q 32.6 37.2, 32.0 37.9 Q 31.4 38.6, 31.4 40.0 Q 31.4 41.4, 32.0 42.2 Q 32.6 42.9, 33.7 42.9 " fill="#000000" />
<path class="atom-15" d="M 178.3 11.5 Q 178.3 9.8, 179.1 8.9 Q 180.0 7.9, 181.5 7.9 Q 183.1 7.9, 184.0 8.9 Q 184.8 9.8, 184.8 11.5 Q 184.8 13.3, 183.9 14.2 Q 183.1 15.2, 181.5 15.2 Q 180.0 15.2, 179.1 14.2 Q 178.3 13.3, 178.3 11.5 M 181.5 14.4 Q 182.6 14.4, 183.2 13.7 Q 183.8 13.0, 183.8 11.5 Q 183.8 10.2, 183.2 9.5 Q 182.6 8.7, 181.5 8.7 Q 180.5 8.7, 179.9 9.4 Q 179.3 10.1, 179.3 11.5 Q 179.3 13.0, 179.9 13.7 Q 180.5 14.4, 181.5 14.4 " fill="#000000" />
<path class="atom-15" d="M 185.9 8.0 L 186.9 8.0 L 186.9 11.0 L 190.5 11.0 L 190.5 8.0 L 191.4 8.0 L 191.4 15.1 L 190.5 15.1 L 190.5 11.8 L 186.9 11.8 L 186.9 15.1 L 185.9 15.1 L 185.9 8.0 " fill="#000000" />
<path d="M 91.7,25.7 L 91.3,26.6" style="fill:none;fill-rule:evenodd;stroke:#0C0C0C;stroke-width:1.0px;stroke-linecap:butt;stroke-linejoin:miter;stroke-opacity:1" />
<path d="M 91.3,26.6 L 91.0,27.5" style="fill:none;fill-rule:evenodd;stroke:#0C0C0C;stroke-width:1.0px;stroke-linecap:butt;stroke-linejoin:miter;stroke-opacity:1" />
<path d="M 91.0,27.5 L 90.7,28.6" style="fill:none;fill-rule:evenodd;stroke:#0C0C0C;stroke-width:1.0px;stroke-linecap:butt;stroke-linejoin:miter;stroke-opacity:1" />
<path d="M 90.7,28.6 L 90.5,29.7" style="fill:none;fill-rule:evenodd;stroke:#0C0C0C;stroke-width:1.0px;stroke-linecap:butt;stroke-linejoin:miter;stroke-opacity:1" />
<path d="M 90.5,29.7 L 90.4,30.8" style="fill:none;fill-rule:evenodd;stroke:#0C0C0C;stroke-width:1.0px;stroke-linecap:butt;stroke-linejoin:miter;stroke-opacity:1" />
<path d="M 90.4,30.8 L 90.2,32.1" style="fill:none;fill-rule:evenodd;stroke:#0C0C0C;stroke-width:1.0px;stroke-linecap:butt;stroke-linejoin:miter;stroke-opacity:1" />
<path d="M 90.2,32.1 L 90.2,33.3" style="fill:none;fill-rule:evenodd;stroke:#0C0C0C;stroke-width:1.0px;stroke-linecap:butt;stroke-linejoin:miter;stroke-opacity:1" />
<path d="M 90.2,33.3 L 90.1,34.7" style="fill:none;fill-rule:evenodd;stroke:#0C0C0C;stroke-width:1.0px;stroke-linecap:butt;stroke-linejoin:miter;stroke-opacity:1" />
<path d="M 90.1,34.7 L 90.2,36.0" style="fill:none;fill-rule:evenodd;stroke:#0C0C0C;stroke-width:1.0px;stroke-linecap:butt;stroke-linejoin:miter;stroke-opacity:1" />
<path d="M 90.2,36.0 L 90.2,37.3" style="fill:none;fill-rule:evenodd;stroke:#0C0C0C;stroke-width:1.0px;stroke-linecap:butt;stroke-linejoin:miter;stroke-opacity:1" />
<path d="M 90.2,37.3 L 90.4,38.7" style="fill:none;fill-rule:evenodd;stroke:#0C0C0C;stroke-width:1.0px;stroke-linecap:butt;stroke-linejoin:miter;stroke-opacity:1" />
<path d="M 90.4,38.7 L 90.5,40.1" style="fill:none;fill-rule:evenodd;stroke:#0C0C0C;stroke-width:1.0px;stroke-linecap:butt;stroke-linejoin:miter;stroke-opacity:1" />
<path d="M 90.5,40.1 L 90.7,41.4" style="fill:none;fill-rule:evenodd;stroke:#0C0C0C;stroke-width:1.0px;stroke-linecap:butt;stroke-linejoin:miter;stroke-opacity:1" />
<path d="M 90.7,41.4 L 91.0,42.8" style="fill:none;fill-rule:evenodd;stroke:#0C0C0C;stroke-width:1.0px;stroke-linecap:butt;stroke-linejoin:miter;stroke-opacity:1" />
<path d="M 91.0,42.8 L 91.3,44.1" style="fill:none;fill-rule:evenodd;stroke:#0C0C0C;stroke-width:1.0px;stroke-linecap:butt;stroke-linejoin:miter;stroke-opacity:1" />
<path d="M 91.3,44.1 L 91.7,45.4" style="fill:none;fill-rule:evenodd;stroke:#0C0C0C;stroke-width:1.0px;stroke-linecap:butt;stroke-linejoin:miter;stroke-opacity:1" />
<path d="M 156.4,44.8 L 156.7,43.9" style="fill:none;fill-rule:evenodd;stroke:#0C0C0C;stroke-width:1.0px;stroke-linecap:butt;stroke-linejoin:miter;stroke-opacity:1" />
<path d="M 156.7,43.9 L 157.1,43.0" style="fill:none;fill-rule:evenodd;stroke:#0C0C0C;stroke-width:1.0px;stroke-linecap:butt;stroke-linejoin:miter;stroke-opacity:1" />
<path d="M 157.1,43.0 L 157.3,41.9" style="fill:none;fill-rule:evenodd;stroke:#0C0C0C;stroke-width:1.0px;stroke-linecap:butt;stroke-linejoin:miter;stroke-opacity:1" />
<path d="M 157.3,41.9 L 157.5,40.8" style="fill:none;fill-rule:evenodd;stroke:#0C0C0C;stroke-width:1.0px;stroke-linecap:butt;stroke-linejoin:miter;stroke-opacity:1" />
<path d="M 157.5,40.8 L 157.7,39.6" style="fill:none;fill-rule:evenodd;stroke:#0C0C0C;stroke-width:1.0px;stroke-linecap:butt;stroke-linejoin:miter;stroke-opacity:1" />
<path d="M 157.7,39.6 L 157.8,38.4" style="fill:none;fill-rule:evenodd;stroke:#0C0C0C;stroke-width:1.0px;stroke-linecap:butt;stroke-linejoin:miter;stroke-opacity:1" />
<path d="M 157.8,38.4 L 157.9,37.1" style="fill:none;fill-rule:evenodd;stroke:#0C0C0C;stroke-width:1.0px;stroke-linecap:butt;stroke-linejoin:miter;stroke-opacity:1" />
<path d="M 157.9,37.1 L 157.9,35.8" style="fill:none;fill-rule:evenodd;stroke:#0C0C0C;stroke-width:1.0px;stroke-linecap:butt;stroke-linejoin:miter;stroke-opacity:1" />
<path d="M 157.9,35.8 L 157.9,34.5" style="fill:none;fill-rule:evenodd;stroke:#0C0C0C;stroke-width:1.0px;stroke-linecap:butt;stroke-linejoin:miter;stroke-opacity:1" />
<path d="M 157.9,34.5 L 157.8,33.1" style="fill:none;fill-rule:evenodd;stroke:#0C0C0C;stroke-width:1.0px;stroke-linecap:butt;stroke-linejoin:miter;stroke-opacity:1" />
<path d="M 157.8,33.1 L 157.7,31.8" style="fill:none;fill-rule:evenodd;stroke:#0C0C0C;stroke-width:1.0px;stroke-linecap:butt;stroke-linejoin:miter;stroke-opacity:1" />
<path d="M 157.7,31.8 L 157.5,30.4" style="fill:none;fill-rule:evenodd;stroke:#0C0C0C;stroke-width:1.0px;stroke-linecap:butt;stroke-linejoin:miter;stroke-opacity:1" />
<path d="M 157.5,30.4 L 157.3,29.1" style="fill:none;fill-rule:evenodd;stroke:#0C0C0C;stroke-width:1.0px;stroke-linecap:butt;stroke-linejoin:miter;stroke-opacity:1" />
<path d="M 157.3,29.1 L 157.1,27.7" style="fill:none;fill-rule:evenodd;stroke:#0C0C0C;stroke-width:1.0px;stroke-linecap:butt;stroke-linejoin:miter;stroke-opacity:1" />
<path d="M 157.1,27.7 L 156.7,26.4" style="fill:none;fill-rule:evenodd;stroke:#0C0C0C;stroke-width:1.0px;stroke-linecap:butt;stroke-linejoin:miter;stroke-opacity:1" />
<path d="M 156.7,26.4 L 156.4,25.1" style="fill:none;fill-rule:evenodd;stroke:#0C0C0C;stroke-width:1.0px;stroke-linecap:butt;stroke-linejoin:miter;stroke-opacity:1" />
<path d="M 161.7 47.9 Q 162.3 48.1, 162.6 48.4 Q 162.8 48.8, 162.8 49.3 Q 162.8 49.8, 162.6 50.2 Q 162.3 50.6, 161.9 50.8 Q 161.5 51.0, 160.9 51.0 Q 160.3 51.0, 159.8 50.8 Q 159.4 50.5, 159.0 50.1 L 159.5 49.6 Q 159.8 50.0, 160.1 50.2 Q 160.4 50.3, 160.9 50.3 Q 161.4 50.3, 161.7 50.0 Q 162.0 49.8, 162.0 49.3 Q 162.0 48.7, 161.7 48.5 Q 161.4 48.2, 160.7 48.2 L 160.3 48.2 L 160.3 47.6 L 160.6 47.6 Q 161.3 47.6, 161.6 47.4 Q 161.9 47.1, 161.9 46.6 Q 161.9 46.2, 161.6 46.0 Q 161.4 45.8, 160.9 45.8 Q 160.4 45.8, 160.1 46.0 Q 159.8 46.1, 159.6 46.6 L 159.1 46.3 Q 159.3 45.8, 159.7 45.5 Q 160.2 45.2, 160.9 45.2 Q 161.7 45.2, 162.2 45.5 Q 162.7 45.9, 162.7 46.6 Q 162.7 47.1, 162.5 47.4 Q 162.2 47.7, 161.7 47.9 " fill="#0C0C0C" />
</svg>